<?xml version="1.0" encoding="UTF-8"?>
<svg width="47px" height="47px" viewBox="0 0 47 47" version="1.1" xmlns="http://www.w3.org/2000/svg" xmlns:xlink="http://www.w3.org/1999/xlink">
    <title>facebook icon</title>
    <g id="Ikoner" stroke="none" stroke-width="1" fill="none" fill-rule="evenodd">
        <g id="Desktop-HD" transform="translate(-555.000000, -488.000000)">
            <g id="facebook-icon" transform="translate(555.000000, 488.000000)">
                <path d="M23.466929,46.9350912 L23.466929,46.9350912 C10.5064758,46.9350912 3.55271368e-15,36.4286154 3.55271368e-15,23.4681622 C3.55271368e-15,10.5064758 10.5064758,1.42108547e-14 23.466929,1.42108547e-14 C36.4273822,1.42108547e-14 46.9350912,10.5064758 46.9350912,23.4681622 C46.9350912,36.4286154 36.4273822,46.9350912 23.466929,46.9350912" id="Fill-13" fill="#000000"></path>
                <path d="M19.950002,37.9353379 L25.6205925,37.9353379 L25.6205925,23.3118049 L29.5772739,23.3118049 L29.9996301,18.4158647 L25.6205925,18.4158647 L25.6205925,15.6275486 C25.6205925,14.4728933 25.8458491,14.0165775 26.9305087,14.0165775 L29.9996301,14.0165775 L29.9996301,8.93533787 L26.0723299,8.93533787 C21.8524411,8.93533787 19.950002,10.8500992 19.950002,14.51197 L19.950002,18.4158647 L16.9996301,18.4158647 L16.9996301,23.3735714 L19.950002,23.3735714 L19.950002,37.9353379 Z" id="Fill-16" fill="#FFFFFF"></path>
            </g>
        </g>
    </g>
</svg>