<?xml version="1.0" encoding="UTF-8"?>
<svg width="47px" height="47px" viewBox="0 0 47 47" version="1.1" xmlns="http://www.w3.org/2000/svg" xmlns:xlink="http://www.w3.org/1999/xlink">
    <title>instagram icon</title>
    <g id="Ikoner" stroke="none" stroke-width="1" fill="none" fill-rule="evenodd">
        <g id="Desktop-HD" transform="translate(-697.000000, -488.000000)">
            <g id="instagram-icon" transform="translate(697.000000, 488.000000)">
                <path d="M0,23.5006174 C0,10.5210058 10.5219642,0 23.5,0 C36.4780358,0 47,10.5210058 47,23.5006174 C47,36.4789942 36.4780358,47 23.5,47 C10.5219642,47 0,36.4789942 0,23.5006174 Z" id="bg" fill="#000000"></path>
                <g id="logo" transform="translate(10.500000, 11.000000)" fill="#FFFFFF">
                    <path d="M13.0006229,1.77635684e-15 C9.46983564,1.77635684e-15 9.02755283,0.0143753893 7.64090277,0.075470794 C6.25674445,0.136566199 5.31237721,0.347405242 4.48512147,0.656476113 C3.63045666,0.975130576 2.90536202,1.40279841 2.18275912,2.09760889 C1.46015621,2.79361733 1.01538167,3.49082371 0.682735157,4.3126168 C0.361301452,5.10805501 0.142028847,6.01610044 0.0784896258,7.34582395 C0.016196272,8.68033926 1.77635684e-15,9.10561119 1.77635684e-15,12.500599 C1.77635684e-15,15.8955868 0.016196272,16.3208587 0.0784896258,17.6541761 C0.142028847,18.9838996 0.361301452,19.8931429 0.682735157,20.6885811 C1.01538167,21.5103742 1.46015621,22.2075806 2.18275912,22.9023911 C2.90536202,23.5972016 3.63045666,24.0248694 4.48512147,24.3435239 C5.31237721,24.6525948 6.25674445,24.8646318 7.64090277,24.9245292 C9.02755283,24.9856246 9.46983564,25 13.0006229,25 C16.5301644,25 16.973693,24.9856246 18.3603431,24.9245292 C19.7445014,24.8646318 20.6888687,24.6525948 21.5148785,24.3435239 C22.3707892,24.0248694 23.0958838,23.5972016 23.8184868,22.9023911 C24.5410897,22.2075806 24.9858642,21.5103742 25.3185107,20.6885811 C25.6399444,19.8931429 25.859217,18.9838996 25.9227562,17.6541761 C25.9850496,16.3208587 26,15.8955868 26,12.500599 C26,9.10561119 25.9850496,8.68033926 25.9227562,7.34582395 C25.859217,6.01610044 25.6399444,5.10805501 25.3185107,4.3126168 C24.9858642,3.49082371 24.5410897,2.79361733 23.8184868,2.09760889 C23.0958838,1.40279841 22.3707892,0.975130576 21.5148785,0.656476113 C20.6888687,0.347405242 19.7445014,0.136566199 18.3603431,0.075470794 C16.973693,0.0143753893 16.5301644,1.77635684e-15 13.0006229,1.77635684e-15 M13.0006229,2.25214433 C16.4716086,2.25214433 16.8827447,2.26532177 18.2531985,2.32521922 C19.5202453,2.38032488 20.2092098,2.58517418 20.6676889,2.75528296 C21.2744262,2.98289329 21.7067421,3.25362979 22.1627294,3.69088121 C22.6174709,4.12813264 22.8990368,4.54382098 23.1345057,5.12842014 C23.3126647,5.56806747 23.5244621,6.23053333 23.5830179,7.44884757 C23.6440654,8.7665916 23.6577699,9.1619148 23.6577699,12.500599 C23.6577699,15.8380852 23.6440654,16.2334084 23.5830179,17.5511524 C23.5244621,18.7694667 23.3126647,19.4319325 23.1345057,19.8715799 C22.8990368,20.456179 22.6174709,20.8718674 22.1627294,21.3103167 C21.7067421,21.7463702 21.2744262,22.0171067 20.6676889,22.244717 C20.2092098,22.4160238 19.5202453,22.6196751 18.2531985,22.6747808 C16.8827447,22.7358762 16.4716086,22.7478557 13.0006229,22.7478557 C9.52839139,22.7478557 9.11850113,22.7358762 7.74680148,22.6747808 C6.47975466,22.6196751 5.79079017,22.4160238 5.33355695,22.244717 C4.72681968,22.0171067 4.29325794,21.7463702 3.83851646,21.3103167 C3.38377498,20.8718674 3.10220902,20.456179 2.86674014,19.8715799 C2.68858115,19.4319325 2.47678375,18.7694667 2.41822799,17.5511524 C2.35593464,16.2334084 2.34347597,15.8380852 2.34347597,12.500599 C2.34347597,9.1619148 2.35593464,8.7665916 2.41822799,7.44884757 C2.47678375,6.23053333 2.68858115,5.56806747 2.86674014,5.12842014 C3.10220902,4.54382098 3.38377498,4.12813264 3.83851646,3.69088121 C4.29325794,3.25362979 4.72681968,2.98289329 5.33355695,2.75528296 C5.79079017,2.58517418 6.47975466,2.38032488 7.74680148,2.32521922 C9.11850113,2.26532177 9.52963726,2.25214433 13.0006229,2.25214433" id="Fill-21"></path>
                    <path d="M12.5,16.7192982 C10.1695595,16.7192982 8.27948862,14.8304405 8.27948862,12.5 C8.27948862,10.1695595 10.1695595,8.28070175 12.5,8.28070175 C14.8304405,8.28070175 16.7192982,10.1695595 16.7192982,12.5 C16.7192982,14.8304405 14.8304405,16.7192982 12.5,16.7192982 M12.5,6 C8.91032102,6 6,8.91032102 6,12.5 C6,16.089679 8.91032102,19 12.5,19 C16.089679,19 19,16.089679 19,12.5 C19,8.91032102 16.089679,6 12.5,6" id="Fill-23"></path>
                    <path d="M21,5.5 C21,6.3278754 20.3278754,7 19.5,7 C18.6721246,7 18,6.3278754 18,5.5 C18,4.6721246 18.6721246,4 19.5,4 C20.3278754,4 21,4.6721246 21,5.5" id="Fill-25"></path>
                </g>
            </g>
        </g>
    </g>
</svg>