<?xml version="1.0" encoding="UTF-8"?>
<svg width="47px" height="47px" viewBox="0 0 47 47" version="1.1" xmlns="http://www.w3.org/2000/svg" xmlns:xlink="http://www.w3.org/1999/xlink">
    <title>linkedin icon</title>
    <g id="Ikoner" stroke="none" stroke-width="1" fill="none" fill-rule="evenodd">
        <g id="Desktop-HD" transform="translate(-768.000000, -488.000000)">
            <g id="linkedin-icon" transform="translate(768.000000, 488.000000)">
                <path d="M23.5,47 L23.5,47 C10.5219642,47 2.66453526e-13,36.4789942 2.66453526e-13,23.5006174 C2.66453526e-13,10.5210058 10.5219642,1.42108547e-14 23.5,1.42108547e-14 C36.4780358,1.42108547e-14 47,10.5210058 47,23.5006174 C47,36.4789942 36.4780358,47 23.5,47" id="Fill-18" fill="#000000"></path>
                <g id="LinkedIn-Logo" transform="translate(10.787584, 10.720492)" fill="#FFFFFF">
                    <path d="M27.8903618,21.8769277 C26.9524376,21.8769277 26.1922037,22.6367494 26.1922037,23.5742613 C26.1922037,24.5121856 26.9524376,25.2724195 27.8903618,25.2724195 C28.8278738,25.2724195 29.5881077,24.5121856 29.5881077,23.5742613 C29.5881077,22.6367494 28.8278738,21.8769277 27.8903618,21.8769277 Z M27.8903618,22.0702844 C28.7198579,22.0702844 29.394751,22.7451776 29.394751,23.5742613 C29.394751,24.4041697 28.7198579,25.0790628 27.8903618,25.0790628 C27.0604535,25.0790628 26.3855603,24.4041697 26.3855603,23.5742613 C26.3855603,22.7451776 27.0604535,22.0702844 27.8903618,22.0702844 L27.8903618,22.0702844 Z" id="Fill-14"></path>
                    <g id="Group-18" transform="translate(27.210109, 22.675091)">
                        <path d="M0.636551643,0.834031071 L0.335179071,0.834031071 L0.335179071,0.223452714 L0.716532873,0.223452714 C0.914012301,0.223452714 1.13828956,0.255610116 1.13828956,0.513693878 C1.13828956,0.810531432 0.91112638,0.834031071 0.634902546,0.834031071 M0.936687392,1.0154318 C1.19064841,1.01749317 1.3984347,0.813829627 1.40132062,0.559868608 C1.40132062,0.549561749 1.40090834,0.538842615 1.40049607,0.528535755 C1.40049607,0.183462099 1.19229751,0.0189646215 0.76518125,0.0189646215 L0.0750339372,0.0189646215 L0.0750339372,1.82513868 L0.334354522,1.82513868 L0.334354522,1.03769462 L0.653454893,1.03769462 L0.660875832,1.0475892 L1.15560509,1.82513868 L1.43347802,1.82513868 L0.900819521,1.01996682 L0.936687392,1.0154318" id="Fill-15"></path>
                    </g>
                    <path d="M23.2106353,0.26261878 L2.04323183,0.26261878 C1.04264191,0.251487372 0.222628165,1.05253649 0.210259934,2.05312641 L0.210259934,23.3083444 C0.221803617,24.3093466 1.04264191,25.1116325 2.04323183,25.1006614 L23.2106353,25.1006614 C24.2136989,25.1136939 25.0370108,24.3109957 25.0510282,23.3083444 L25.0510282,2.05147732 C25.0365986,1.04965057 24.2132866,0.247776903 23.2106353,0.2608092 L23.2106353,0.26261878 Z M3.8926947,21.4263118 L7.57719083,21.4263118 L7.57719083,9.57259883 L3.8926947,9.57259883 L3.8926947,21.4263118 Z M5.736798,7.95277279 C4.557281,7.95277279 3.6008043,6.99629623 3.6008043,5.81719151 C3.60039216,4.6376745 4.55645645,3.68078567 5.73597345,3.68037339 C6.91590273,3.68037339 7.87237942,4.63684995 7.87237942,5.81636696 C7.87279157,6.99588396 6.91672728,7.95236052 5.736798,7.95277279 L5.736798,7.95277279 Z M21.3756021,21.4263118 L17.6952287,21.4263118 L17.6952287,15.6623037 C17.6952287,14.2877809 17.6704922,12.5182993 15.7810387,12.5182993 C13.8639629,12.5182993 13.5704235,14.0160921 13.5704235,15.5625333 L13.5704235,21.4258995 L9.88963783,21.4258995 L9.88963783,9.57259883 L13.4232415,9.57259883 L13.4232415,11.1924249 L13.4727145,11.1924249 C14.1933701,9.9609613 15.5328495,9.22505153 16.9589066,9.27823493 C20.6895775,9.27823493 21.3772512,11.7316798 21.3772512,14.9239203 L21.3756021,21.4263118 L21.3756021,21.4263118 Z" id="Fill-24"></path>
                </g>
            </g>
        </g>
    </g>
</svg>