<?xml version="1.0" encoding="UTF-8"?>
<svg width="47px" height="47px" viewBox="0 0 47 47" version="1.1" xmlns="http://www.w3.org/2000/svg" xmlns:xlink="http://www.w3.org/1999/xlink">
    <title>tripadvisor icon</title>
    <g id="Ikoner" stroke="none" stroke-width="1" fill="none" fill-rule="evenodd">
        <g id="Social-links" transform="translate(-1042.000000, -488.000000)" fill-rule="nonzero">
            <g id="tripadvisor-icon" transform="translate(1042.000000, 488.000000)">
                <circle id="Oval" fill="#000000" cx="23.5" cy="23.5" r="23.5"></circle>
                <path d="M38.1411902,19.4090154 L41,16.360778 L34.6588876,16.360778 C27.9308295,11.8797407 19.0882292,11.8797407 12.3601711,16.360778 L6,16.360778 L8.8588098,19.4090154 C6.55845219,21.4791252 5.5610726,24.5932712 6.2423743,27.5783849 C6.923676,30.5634985 9.18015304,32.96607 12.1618123,33.8810738 C15.1434716,34.7960776 18.3973282,34.0845029 20.6976857,32.0143931 L23.5013613,35 L26.3029949,32.0157256 C28.6021408,34.0947696 31.8609907,34.8127253 34.8484019,33.8983603 C37.8358131,32.9839952 40.0963532,30.5767049 40.7760251,27.5859261 C41.455697,24.5951474 40.4508846,21.476826 38.1411902,19.4090154 Z M14.7513613,31.5293402 C11.4808303,31.5293402 8.82954103,28.9340925 8.82954103,25.7326921 C8.82954103,22.5312918 11.4808303,19.936044 14.7513613,19.936044 C18.0218924,19.936044 20.6731816,22.5312918 20.6731816,25.7326921 C20.6731816,28.9340925 18.0218924,31.5293402 14.7513613,31.5293402 Z M23.4986387,25.5694532 C23.4986387,21.756991 20.6656943,18.4855494 16.9295021,17.0870248 C21.1332231,15.3720163 25.8626929,15.3720163 30.0664138,17.0870248 C26.333625,18.4855494 23.5013613,21.7563248 23.5013613,25.5687869 L23.4986387,25.5694532 Z M32.2445546,31.5293402 C28.9740236,31.5293402 26.3227343,28.9340925 26.3227343,25.7326921 C26.3227343,22.5312918 28.9740236,19.936044 32.2445546,19.936044 C35.5150857,19.936044 38.166375,22.5312918 38.166375,25.7326921 C38.166375,28.9340925 35.5150857,31.5293402 32.2445546,31.5293402 Z M32.2445546,22.6991129 C30.9894053,22.6991137 29.8579104,23.4393942 29.3779041,24.5746189 C28.8978978,25.7098437 29.163958,27.016334 30.0519695,27.8846217 C30.9399811,28.7529094 32.2749749,29.0119117 33.434186,28.5408058 C34.5933971,28.0696999 35.3484208,26.96131 35.3470458,25.7326921 C35.3455412,24.0564936 33.9569495,22.6984466 32.2445546,22.6984466 L32.2445546,22.6991129 Z M17.8565745,25.7326921 C17.8580763,27.4099306 16.470264,28.7707938 14.7568075,28.7722667 C13.0433509,28.7737372 11.653101,27.41526 11.6515959,25.7380216 C11.6500932,24.0607831 13.0379048,22.6999192 14.7513613,22.6984455 C15.5741928,22.6977395 16.3636101,23.0170208 16.9459504,23.5860523 C17.5282906,24.1550838 17.8558515,24.9272532 17.8565745,25.7326921 L17.8565745,25.7326921 Z" id="Shape" fill="#FFFFFF"></path>
            </g>
        </g>
    </g>
</svg>