<?xml version="1.0" encoding="UTF-8"?>
<svg width="47px" height="47px" viewBox="0 0 47 47" version="1.1" xmlns="http://www.w3.org/2000/svg" xmlns:xlink="http://www.w3.org/1999/xlink">
    <title>youtube icon</title>
    <defs>
        <polygon id="path-1" points="0.010572369 0.00706704135 31.0122825 0.00706704135 31.0122825 21.9078282 0.010572369 21.9078282"></polygon>
    </defs>
    <g id="Ikoner" stroke="none" stroke-width="1" fill="none" fill-rule="evenodd">
        <g id="Desktop-HD" transform="translate(-1023.000000, -488.000000)">
            <g id="youtube-icon" transform="translate(1023.000000, 488.000000)">
                <path d="M23.5,47 L23.5,47 C10.5219642,47 0,36.4789942 0,23.5006174 C0,10.5210058 10.5219642,0 23.5,0 C36.4780358,0 47,10.5210058 47,23.5006174 C47,36.4789942 36.4780358,47 23.5,47" id="Fill-18-Copy" fill="#000000"></path>
                <g transform="translate(8.000000, 12.500000)">
                    <g id="Group-3">
                        <mask id="mask-2" fill="white">
                            <use xlink:href="#path-1"></use>
                        </mask>
                        <g id="Clip-2"></g>
                        <path d="M27.6224286,0.654054677 C25.2039992,0 15.5061413,0 15.5061413,0 C15.5061413,0 5.80828335,0 3.38985393,0.654054677 C2.05562096,1.01394376 1.00472747,2.07435331 0.648086223,3.42097804 C0,5.86158078 0,10.9539141 0,10.9539141 C0,10.9539141 0,16.0460707 0.648086223,18.4870268 C1.00472747,19.8334749 2.05562096,20.8938844 3.38985393,21.2539502 C5.80828335,21.9078282 15.5061413,21.9078282 15.5061413,21.9078282 C15.5061413,21.9078282 25.2039992,21.9078282 27.6224286,21.2539502 C28.9568378,20.8938844 30.0075551,19.8334749 30.3641963,18.4870268 C31.0122825,16.0460707 31.0122825,10.9539141 31.0122825,10.9539141 C31.0122825,10.9539141 31.0122825,5.86158078 30.3641963,3.42097804 C30.0075551,2.07435331 28.9568378,1.01394376 27.6224286,0.654054677 Z" id="Fill-1" fill="#FFFFFF" mask="url(#mask-2)"></path>
                    </g>
                    <polyline id="Fill-4" fill="#000000" points="12.2169598 15.5061413 20.204972 10.8074901 12.2169598 6.10847989 12.2169598 15.5061413"></polyline>
                </g>
            </g>
        </g>
    </g>
</svg>